<svg width="64" height="64" viewBox="0 0 64 64" fill="none" xmlns="http://www.w3.org/2000/svg">
<g clip-path="url(#clip0_1246_1868)">
<circle cx="32" cy="32" r="32" fill="#6C6CC4"/>
<path d="M21 24.25C20.5858 24.25 20.25 24.5858 20.25 25V39C20.25 39.1275 20.2825 39.2528 20.3444 39.3642L21 39C20.3444 39.3642 20.3446 39.3647 20.3449 39.3652L20.3455 39.3663L20.3469 39.3688L20.3504 39.3749L20.3604 39.3921C20.3683 39.4057 20.3789 39.4234 20.3923 39.4451C20.4191 39.4883 20.457 39.5472 20.5069 39.6195C20.6066 39.764 20.7545 39.9621 20.9577 40.1955C21.3643 40.6626 21.9918 41.2709 22.8965 41.874C24.7132 43.0852 27.6094 44.25 32 44.25C36.3906 44.25 39.2868 43.0852 41.1035 41.874C42.0082 41.2709 42.6357 40.6626 43.0423 40.1955C43.2455 39.9621 43.3934 39.764 43.4931 39.6195C43.543 39.5472 43.5809 39.4883 43.6077 39.4451C43.6211 39.4234 43.6317 39.4057 43.6396 39.3921L43.6496 39.3749L43.6531 39.3688L43.6545 39.3663L43.6551 39.3652C43.6554 39.3647 43.6556 39.3642 43 39L43.6556 39.3642C43.7175 39.2528 43.75 39.1275 43.75 39V25C43.75 24.5858 43.4142 24.25 43 24.25H21Z" fill="#11A8CD" stroke="#333333" stroke-width="1.5" stroke-linejoin="round"/>
<path d="M21 27.25C20.5858 27.25 20.25 27.5858 20.25 28V35C20.25 35.1275 20.2825 35.2528 20.3444 35.3642L21 35C20.3444 35.3642 20.3446 35.3647 20.3449 35.3652L20.3455 35.3663L20.3469 35.3688L20.3504 35.3749L20.3604 35.3921C20.3683 35.4057 20.3789 35.4234 20.3923 35.4451C20.4191 35.4883 20.457 35.5472 20.5069 35.6195C20.6066 35.764 20.7545 35.9621 20.9577 36.1955C21.3643 36.6626 21.9918 37.2709 22.8965 37.874C24.7132 39.0852 27.6094 40.25 32 40.25C36.3906 40.25 39.2868 39.0852 41.1035 37.874C42.0082 37.2709 42.6357 36.6626 43.0423 36.1955C43.2455 35.9621 43.3934 35.764 43.4931 35.6195C43.543 35.5472 43.5809 35.4883 43.6077 35.4451C43.6211 35.4234 43.6317 35.4057 43.6396 35.3921L43.6496 35.3749L43.6531 35.3688L43.6545 35.3663L43.6551 35.3652C43.6554 35.3647 43.6556 35.3642 43 35L43.6556 35.3642C43.7175 35.2528 43.75 35.1275 43.75 35V28C43.75 27.5858 43.4142 27.25 43 27.25H21Z" fill="white" stroke="#333333" stroke-width="1.5" stroke-linejoin="round"/>
<path d="M10.7782 26.7835C10.4641 26.8808 10.25 27.1712 10.25 27.5C10.25 27.8288 10.4641 28.1192 10.7782 28.2165L31.7782 34.7165C31.9227 34.7612 32.0773 34.7612 32.2218 34.7165L53.2218 28.2165C53.5359 28.1192 53.75 27.8288 53.75 27.5C53.75 27.1712 53.5359 26.8808 53.2218 26.7835L32.2218 20.2835C32.0773 20.2388 31.9227 20.2388 31.7782 20.2835L10.7782 26.7835Z" fill="white" stroke="#333333" stroke-width="1.5" stroke-linejoin="round"/>
<path d="M32 27L46.5 29.5V42" stroke="#F48771" stroke-width="1.5" stroke-linecap="round" stroke-linejoin="round"/>
<circle cx="46.5" cy="43.5" r="1.75" fill="#F48771" stroke="#F48771" stroke-width="1.5"/>
<path d="M46.5 45.5V49" stroke="#F48771" stroke-width="1.5" stroke-linecap="round" stroke-linejoin="round"/>
<path d="M45.3236 45.0426L43.6766 48.4574" stroke="#F48771" stroke-width="1.5" stroke-linecap="round" stroke-linejoin="round"/>
<path d="M47.6764 45.0426L49.3234 48.4574" stroke="#F48771" stroke-width="1.5" stroke-linecap="round" stroke-linejoin="round"/>
</g>
<defs>
<clipPath id="clip0_1246_1868">
<rect width="64" height="64" fill="white"/>
</clipPath>
</defs>
</svg>
